<?xml version="1.0" encoding="UTF-8"?>
<svg width="74" height="24" viewBox="0 0 74 24" fill="none" xmlns="http://www.w3.org/2000/svg">
  <path d="M31.36 11.216c0 3.264-2.544 5.664-5.664 5.664-3.12 0-5.664-2.4-5.664-5.664 0-3.288 2.544-5.664 5.664-5.664 3.12 0 5.664 2.376 5.664 5.664zm-2.472 0c0-2.04-1.488-3.432-3.192-3.432-1.704 0-3.192 1.392-3.192 3.432 0 2.016 1.488 3.432 3.192 3.432 1.704 0 3.192-1.416 3.192-3.432z" fill="#ffffff"/>
  <path d="M44.752 11.216c0 3.264-2.544 5.664-5.664 5.664-3.12 0-5.664-2.4-5.664-5.664 0-3.288 2.544-5.664 5.664-5.664 3.12 0 5.664 2.376 5.664 5.664zm-2.472 0c0-2.04-1.488-3.432-3.192-3.432-1.704 0-3.192 1.392-3.192 3.432 0 2.016 1.488 3.432 3.192 3.432 1.704 0 3.192-1.416 3.192-3.432z" fill="#ffffff"/>
  <path d="M57.28 5.912v10.272c0 4.224-2.496 5.952-5.448 5.952-2.784 0-4.464-1.872-5.088-3.408l2.184-0.912c0.384 0.936 1.32 2.04 2.904 2.04 1.896 0 3.072-1.176 3.072-3.384v-0.816h-0.096c-0.576 0.696-1.68 1.32-3.072 1.32-2.928 0-5.616-2.544-5.616-5.832 0-3.312 2.688-5.88 5.616-5.88 1.392 0 2.496 0.624 3.072 1.296h0.096V5.912h2.376zm-2.208 5.376c0-2.064-1.392-3.576-3.168-3.576-1.8 0-3.312 1.512-3.312 3.576 0 2.04 1.512 3.504 3.312 3.504 1.776 0 3.168-1.464 3.168-3.504z" fill="#ffffff"/>
  <path d="M62.152 0.8v16h-2.424V0.8h2.424z" fill="#ffffff"/>
  <path d="M71.624 13.088l1.944 1.296c-0.624 0.936-2.136 2.544-4.752 2.544-3.24 0-5.664-2.496-5.664-5.664 0-3.36 2.448-5.664 5.376-5.664 2.952 0 4.392 2.352 4.872 3.624l0.264 0.648-7.608 3.144c0.576 1.128 1.488 1.704 2.76 1.704 1.272 0 2.16-0.624 2.808-1.632zm-5.976-2.04l5.088-2.112c-0.288-0.72-1.128-1.224-2.136-1.224-1.272 0-3.048 1.128-2.952 3.336z" fill="#ffffff"/>
  <path d="M9.288 10.176v2.232h5.352c-0.168 1.272-0.576 2.184-1.224 2.832-0.792 0.792-2.016 1.656-4.128 1.656-3.288 0-5.856-2.664-5.856-5.952S5.976 5.016 9.288 5.016c1.776 0 3.072 0.696 4.032 1.608l1.584-1.584C13.536 3.72 11.784 2.8 9.288 2.8c-4.416 0-8.136 3.6-8.136 8.016s3.72 8.016 8.136 8.016c2.376 0 4.176-0.792 5.568-2.256 1.44-1.44 1.896-3.48 1.896-5.112 0-0.504-0.048-0.984-0.12-1.368h-7.344v0.08z" fill="#ffffff"/></svg> 